<mxfile host="app.diagrams.net" modified="2024-06-09T15:13:26.647Z" agent="Mozilla/5.0 (Windows NT 10.0; Win64; x64; rv:125.0) Gecko/20100101 Firefox/125.0" etag="Hi6yIm_5E3gQaXj6vRwS" version="24.5.2" type="github">
  <diagram name="Strona-1" id="gaJS7H-nqi4Sh_2xevVq">
    <mxGraphModel dx="2261" dy="734" grid="1" gridSize="10" guides="1" tooltips="1" connect="1" arrows="1" fold="1" page="1" pageScale="1" pageWidth="827" pageHeight="1169" math="0" shadow="0">
      <root>
        <mxCell id="0" />
        <mxCell id="1" parent="0" />
        <mxCell id="5zhAauQ81A8iP2_8ObZn-2" value="End user/client" style="image;sketch=0;aspect=fixed;html=1;points=[];align=center;fontSize=12;image=img/lib/mscae/Person.svg;" vertex="1" parent="1">
          <mxGeometry x="-249" y="270" width="37" height="50" as="geometry" />
        </mxCell>
        <mxCell id="5zhAauQ81A8iP2_8ObZn-3" value="" style="image;sketch=0;aspect=fixed;html=1;points=[];align=center;fontSize=12;image=img/lib/mscae/Front_Doors.svg;" vertex="1" parent="1">
          <mxGeometry x="-50" y="273" width="50" height="44" as="geometry" />
        </mxCell>
      </root>
    </mxGraphModel>
  </diagram>
</mxfile>
